ffmpeg version 3.4.8-0ubuntu0.2 Copyright (c) 2000-2020 the FFmpeg developers
  built with gcc 7 (Ubuntu 7.5.0-3ubuntu1~18.04)
  configuration: --prefix=/usr --extra-version=0ubuntu0.2 --toolchain=hardened --libdir=/usr/lib/x86_64-linux-gnu --incdir=/usr/include/x86_64-linux-gnu --enable-gpl --disable-stripping --enable-avresample --enable-avisynth --enable-gnutls --enable-ladspa --enable-libass --enable-libbluray --enable-libbs2b --enable-libcaca --enable-libcdio --enable-libflite --enable-libfontconfig --enable-libfreetype --enable-libfribidi --enable-libgme --enable-libgsm --enable-libmp3lame --enable-libmysofa --enable-libopenjpeg --enable-libopenmpt --enable-libopus --enable-libpulse --enable-librubberband --enable-librsvg --enable-libshine --enable-libsnappy --enable-libsoxr --enable-libspeex --enable-libssh --enable-libtheora --enable-libtwolame --enable-libvorbis --enable-libvpx --enable-libwavpack --enable-libwebp --enable-libx265 --enable-libxml2 --enable-libxvid --enable-libzmq --enable-libzvbi --enable-omx --enable-openal --enable-opengl --enable-sdl2 --enable-libdc1394 --enable-libdrm --enable-libiec61883 --enable-chromaprint --enable-frei0r --enable-libopencv --enable-libx264 --enable-shared
  libavutil      55. 78.100 / 55. 78.100
  libavcodec     57.107.100 / 57.107.100
  libavformat    57. 83.100 / 57. 83.100
  libavdevice    57. 10.100 / 57. 10.100
  libavfilter     6.107.100 /  6.107.100
  libavresample   3.  7.  0 /  3.  7.  0
  libswscale      4.  8.100 /  4.  8.100
  libswresample   2.  9.100 /  2.  9.100
  libpostproc    54.  7.100 / 54.  7.100
[rawvideo @ 0x55b795741a20] Estimating duration from bitrate, this may be inaccurate
Input #0, rawvideo, from '../../SVC-Encoder-20220109T061506Z-001/SVC-Encoder/Dataset/RollerCoaster/ERP_8x8/tile_yuv/Tile_46_480x240.yuv':
  Duration: 00:00:10.00, start: 0.000000, bitrate: 41472 kb/s
    Stream #0:0: Video: rawvideo (I420 / 0x30323449), yuv420p, 480x240, 41472 kb/s, 30 tbr, 30 tbn, 30 tbc
Stream mapping:
  Stream #0:0 -> #0:0 (rawvideo (native) -> h264 (libx264))
Press [q] to stop, [?] for help
[libx264 @ 0x55b79574ec60] using cpu capabilities: MMX2 SSE2Fast LZCNT SSSE3 SSE4.2 AVX
[libx264 @ 0x55b79574ec60] profile High, level 2.1
Output #0, rawvideo, to 'RollerCoaster_Tile_46_480x240_x264_QP_28.h264':
  Metadata:
    encoder         : Lavf57.83.100
    Stream #0:0: Video: h264 (libx264), yuv420p, 480x240, q=-1--1, 30 fps, 30 tbn, 30 tbc
    Metadata:
      encoder         : Lavc57.107.100 libx264
    Side data:
      cpb: bitrate max/min/avg: 0/0/0 buffer size: 0 vbv_delay: -1
frame=  139 fps=0.0 q=34.0 PSNR=Y:nan U:nan V:nan *:nan size=      90kB time=00:00:03.20 bitrate= 229.9kbits/s speed= 6.4x    frame=  253 fps=253 q=34.0 PSNR=Y:nan U:nan V:nan *:nan size=     181kB time=00:00:07.00 bitrate= 211.7kbits/s speed=   7x    frame=  300 fps=230 q=34.0 LPSNR=Y:inf U:inf V:inf *:inf size=     254kB time=00:00:09.93 bitrate= 209.8kbits/s speed= 7.6x    
video:254kB audio:0kB subtitle:0kB other streams:0kB global headers:0kB muxing overhead: 0.000000%
[libx264 @ 0x55b79574ec60] frame I:2     Avg QP:26.92  size: 11264  PSNR Mean Y:40.25 U:44.34 V:45.97 Avg:41.35 Global:41.32
[libx264 @ 0x55b79574ec60] frame P:77    Avg QP:28.90  size:  2049  PSNR Mean Y:38.01 U:44.45 V:45.69 Avg:39.36 Global:39.32
[libx264 @ 0x55b79574ec60] frame B:221   Avg QP:33.50  size:   363  PSNR Mean Y:37.77 U:44.39 V:45.67 Avg:39.13 Global:39.10
[libx264 @ 0x55b79574ec60] consecutive B-frames:  1.0%  2.0%  1.0% 96.0%
[libx264 @ 0x55b79574ec60] mb I  I16..4:  5.6% 79.7% 14.8%
[libx264 @ 0x55b79574ec60] mb P  I16..4:  0.8%  3.3%  0.9%  P16..4: 45.5% 19.2%  4.6%  0.0%  0.0%    skip:25.8%
[libx264 @ 0x55b79574ec60] mb B  I16..4:  0.0%  0.1%  0.0%  B16..8: 35.5%  3.7%  0.6%  direct: 0.3%  skip:59.9%  L0:38.9% L1:59.2% BI: 1.8%
[libx264 @ 0x55b79574ec60] 8x8 transform intra:71.2% inter:71.1%
[libx264 @ 0x55b79574ec60] coded y,uvDC,uvAC intra: 66.1% 82.7% 42.5% inter: 8.1% 7.1% 0.0%
[libx264 @ 0x55b79574ec60] i16 v,h,dc,p: 16% 35% 19% 30%
[libx264 @ 0x55b79574ec60] i8 v,h,dc,ddl,ddr,vr,hd,vl,hu:  5% 23% 17%  3% 16%  8%  7%  2% 17%
[libx264 @ 0x55b79574ec60] i4 v,h,dc,ddl,ddr,vr,hd,vl,hu:  8% 26% 24%  3% 14%  8%  4%  1% 12%
[libx264 @ 0x55b79574ec60] i8c dc,h,v,p: 44% 34%  7% 15%
[libx264 @ 0x55b79574ec60] Weighted P-Frames: Y:0.0% UV:0.0%
[libx264 @ 0x55b79574ec60] ref P L0: 61.0% 16.1% 15.4%  7.5%
[libx264 @ 0x55b79574ec60] ref B L0: 92.5%  6.5%  1.0%
[libx264 @ 0x55b79574ec60] ref B L1: 94.2%  5.8%
[libx264 @ 0x55b79574ec60] PSNR Mean Y:37.849 U:44.403 V:45.679 Avg:39.207 Global:39.171 kb/s:208.38
